<?xml version="1.0" encoding="UTF-8"?>
<!DOCTYPE svg PUBLIC "-//W3C//DTD SVG 1.1//EN" "http://www.w3.org/Graphics/SVG/1.1/DTD/svg11.dtd">
<svg xmlns="http://www.w3.org/2000/svg" version="1.1" width="64px" height="64px" style="shape-rendering:geometricPrecision; text-rendering:geometricPrecision; image-rendering:optimizeQuality; fill-rule:evenodd; clip-rule:evenodd" xmlns:xlink="http://www.w3.org/1999/xlink">
<g><path style="opacity:1" fill="#282a2c" d="M 34.5,-0.5 C 36.5,-0.5 38.5,-0.5 40.5,-0.5C 47.0534,3.62515 47.7201,8.45849 42.5,14C 35.6767,17.0364 31.3433,14.8697 29.5,7.5C 30.3656,4.30751 32.0323,1.64084 34.5,-0.5 Z"/></g>
<g><path style="opacity:1" fill="#292a2c" d="M 41.5,18.5 C 55.0353,21.8875 60.8686,30.5542 59,44.5C 56.4738,52.8632 50.9738,57.8632 42.5,59.5C 38.1667,59.5 33.8333,59.5 29.5,59.5C 29.5,45.8333 29.5,32.1667 29.5,18.5C 33.5,18.5 37.5,18.5 41.5,18.5 Z M 35.5,23.5 C 49.811,25.7902 54.6444,33.7902 50,47.5C 47.8859,50.1208 45.3859,52.1208 42.5,53.5C 40.139,53.6741 37.8056,54.0074 35.5,54.5C 35.5,44.1667 35.5,33.8333 35.5,23.5 Z"/></g>
<g><path style="opacity:1" fill="#2a2a2c" d="M 22.5,25.5 C 18.1028,29.8918 14.1028,34.5584 10.5,39.5C 14.439,45.1082 19.1057,50.1082 24.5,54.5C 25.7152,55.779 25.3818,56.779 23.5,57.5C 22.448,57.6495 21.448,57.4828 20.5,57C 15.9076,51.9002 10.9076,47.4002 5.5,43.5C 4.09368,43.0269 3.42702,42.0269 3.5,40.5C 3.35055,39.448 3.51722,38.448 4,37.5C 9.16667,32.3333 14.3333,27.1667 19.5,22C 20.448,21.5172 21.448,21.3505 22.5,21.5C 22.5,22.8333 22.5,24.1667 22.5,25.5 Z"/></g>
<g><path style="opacity:0.845" fill="#1a252f" d="M 41.5,18.5 C 37.5,18.5 33.5,18.5 29.5,18.5C 29.5,32.1667 29.5,45.8333 29.5,59.5C 33.8333,59.5 38.1667,59.5 42.5,59.5C 38.03,60.4861 33.3633,60.8195 28.5,60.5C 28.5,46.1667 28.5,31.8333 28.5,17.5C 33.0323,17.1818 37.3656,17.5151 41.5,18.5 Z"/></g>
<g><path style="opacity:1" fill="#22292f" d="M 22.5,25.5 C 22.5,24.1667 22.5,22.8333 22.5,21.5C 21.448,21.3505 20.448,21.5172 19.5,22C 14.3333,27.1667 9.16667,32.3333 4,37.5C 3.51722,38.448 3.35055,39.448 3.5,40.5C 2.40168,39.3991 2.23502,38.0657 3,36.5C 8.5,31 14,25.5 19.5,20C 22.2778,19.0772 24.2778,19.9106 25.5,22.5C 24.8118,23.8549 23.8118,24.8549 22.5,25.5 Z"/></g>
<g><path style="opacity:0.512" fill="#1a2731" d="M 35.5,23.5 C 35.5,33.8333 35.5,44.1667 35.5,54.5C 37.8056,54.0074 40.139,53.6741 42.5,53.5C 40.1617,55.0395 37.4951,55.7062 34.5,55.5C 34.1722,44.6536 34.5056,33.9869 35.5,23.5 Z"/></g>
<g><path style="opacity:1" fill="#1f2830" d="M 10.5,39.5 C 15.8943,43.8918 20.561,48.8918 24.5,54.5C 19.1057,50.1082 14.439,45.1082 10.5,39.5 Z"/></g>
<g><path style="opacity:0.992" fill="#202a34" d="M 5.5,43.5 C 10.9076,47.4002 15.9076,51.9002 20.5,57C 21.448,57.4828 22.448,57.6495 23.5,57.5C 22.3991,58.5983 21.0657,58.765 19.5,58C 14.6301,53.2979 9.96342,48.4646 5.5,43.5 Z"/></g>
</svg>
