<?xml version="1.0" encoding="UTF-8"?>
<!DOCTYPE svg PUBLIC "-//W3C//DTD SVG 1.1//EN" "http://www.w3.org/Graphics/SVG/1.1/DTD/svg11.dtd">
<svg xmlns="http://www.w3.org/2000/svg" version="1.1" width="64px" height="64px" style="shape-rendering:geometricPrecision; text-rendering:geometricPrecision; image-rendering:optimizeQuality; fill-rule:evenodd; clip-rule:evenodd" xmlns:xlink="http://www.w3.org/1999/xlink">
<g><path style="opacity:1" fill="#727475" d="M 34.5,-0.5 C 36.5,-0.5 38.5,-0.5 40.5,-0.5C 47.0534,3.62515 47.7201,8.45849 42.5,14C 35.6767,17.0364 31.3433,14.8697 29.5,7.5C 30.3656,4.30751 32.0323,1.64084 34.5,-0.5 Z"/></g>
<g><path style="opacity:1" fill="#737576" d="M 41.5,18.5 C 46.9352,19.3839 51.2686,22.0506 54.5,26.5C 54.427,28.0269 55.0937,29.0269 56.5,29.5C 57.3382,29.8417 57.6716,30.5084 57.5,31.5C 58.1995,35.7978 58.5328,40.1311 58.5,44.5C 56.3855,52.9483 51.0521,57.9483 42.5,59.5C 38.1667,59.5 33.8333,59.5 29.5,59.5C 29.5,45.8333 29.5,32.1667 29.5,18.5C 33.5,18.5 37.5,18.5 41.5,18.5 Z M 35.5,23.5 C 48.8084,25.1208 53.9751,32.4541 51,45.5C 47.4526,51.1933 42.286,54.1933 35.5,54.5C 35.5,44.1667 35.5,33.8333 35.5,23.5 Z"/></g>
<g><path style="opacity:1" fill="#6e7072" d="M 19.5,19.5 C 22.2882,19.0769 24.2882,20.0769 25.5,22.5C 20.5,27.8333 15.5,33.1667 10.5,38.5C 15.8719,43.8698 20.8719,49.5365 25.5,55.5C 24.7303,57.2718 23.3969,58.2718 21.5,58.5C 15.2447,53.7499 9.41141,48.4166 4,42.5C 3.21893,41.2713 2.71893,39.938 2.5,38.5C 7.78784,31.876 13.4545,25.5427 19.5,19.5 Z"/></g>
<g><path style="opacity:0.907" fill="#484e54" d="M 41.5,18.5 C 37.5,18.5 33.5,18.5 29.5,18.5C 29.5,32.1667 29.5,45.8333 29.5,59.5C 33.8333,59.5 38.1667,59.5 42.5,59.5C 38.03,60.4861 33.3633,60.8195 28.5,60.5C 28.5,46.1667 28.5,31.8333 28.5,17.5C 33.0323,17.1818 37.3656,17.5151 41.5,18.5 Z"/></g>
<g><path style="opacity:0.925" fill="#4b535d" d="M 54.5,26.5 C 55.9063,26.9731 56.573,27.9731 56.5,29.5C 55.0937,29.0269 54.427,28.0269 54.5,26.5 Z"/></g>
<g><path style="opacity:0.901" fill="#434b51" d="M 57.5,31.5 C 58.9517,33.8476 59.6183,36.5143 59.5,39.5C 59.4932,41.3693 59.1599,43.036 58.5,44.5C 58.5328,40.1311 58.1995,35.7978 57.5,31.5 Z"/></g>
</svg>
